<?xml version="1.0" standalone="no"?>
<!DOCTYPE svg PUBLIC "-//W3C//DTD SVG 20010904//EN"
 "http://www.w3.org/TR/2001/REC-SVG-20010904/DTD/svg10.dtd">
<svg version="1.0" xmlns="http://www.w3.org/2000/svg"
 width="567.000000pt" height="567.000000pt" viewBox="0 0 567.000000 567.000000"
 preserveAspectRatio="xMidYMid meet">
<metadata>
Created by potrace 1.14, written by Peter Selinger 2001-2017
</metadata>
<g transform="translate(0.000000,567.000000) scale(0.100000,-0.100000)"
fill="#000000" stroke="none">
<path d="M0 2835 l0 -2835 2835 0 2835 0 0 2835 0 2835 -2835 0 -2835 0 0
-2835z m3051 2405 c312 -31 573 -104 844 -234 607 -292 1070 -824 1275 -1463
165 -514 155 -1086 -26 -1582 -50 -137 -182 -399 -259 -516 -400 -601 -1008
-984 -1730 -1090 -164 -24 -501 -22 -670 4 -544 83 -1005 314 -1383 692 -397
396 -640 890 -713 1454 -20 151 -15 477 10 640 108 717 516 1343 1127 1730
283 179 667 316 996 354 51 6 107 13 123 15 69 8 310 5 406 -4z"/>
<path d="M2600 5199 c-710 -73 -1347 -446 -1753 -1026 -396 -566 -529 -1292
-361 -1965 81 -325 245 -655 457 -922 397 -500 989 -827 1619 -895 125 -14
411 -14 536 0 813 88 1537 597 1896 1332 87 178 135 304 175 460 120 468 104
924 -50 1382 -223 666 -727 1199 -1386 1469 -342 140 -768 202 -1133 165z
m358 -1475 c53 -37 47 -110 -10 -140 -85 -44 -170 65 -103 131 28 29 79 33
113 9z m1577 -9 c34 -33 34 -83 0 -115 -54 -51 -145 -15 -145 57 0 74 92 111
145 58z m-1670 -187 c42 -50 31 -114 -25 -143 -46 -24 -78 -19 -116 19 -39 39
-43 67 -14 113 34 57 112 63 155 11z m-1685 17 c56 -29 67 -93 24 -144 -22
-26 -33 -31 -69 -31 -56 0 -93 30 -102 82 -5 33 -2 41 30 73 39 39 70 44 117
20z m253 4 c94 -48 62 -179 -43 -179 -33 0 -48 6 -71 29 -41 41 -39 83 5 127
36 36 70 43 109 23z m1668 -18 c45 -45 34 -118 -22 -147 -36 -18 -63 -18 -99
1 -89 46 -52 175 50 175 33 0 48 -6 71 -29z m1330 0 c45 -45 35 -111 -21 -144
-35 -21 -62 -21 -100 -2 -89 46 -52 175 50 175 33 0 48 -6 71 -29z m220 19
c29 -16 51 -67 44 -100 -8 -36 -58 -80 -91 -80 -33 0 -81 25 -94 49 -33 63 12
141 83 141 21 0 47 -5 58 -10z m-2893 -272 c3 -22 -2 -30 -22 -38 l-26 -10 0
-251 c0 -279 -5 -304 -64 -340 -29 -18 -56 -19 -390 -19 -340 0 -360 1 -391
20 -50 31 -70 88 -70 195 1 108 26 175 85 229 47 42 138 75 151 55 15 -24 10
-42 -17 -64 -32 -25 -43 -77 -44 -203 0 -144 -25 -132 289 -132 l269 0 6 23
c3 12 6 145 6 295 l0 273 108 -3 107 -3 3 -27z m562 -3 c0 -28 -4 -35 -20 -35
-19 0 -20 -7 -20 -260 l0 -260 140 0 140 0 0 295 0 295 110 0 110 0 0 -35 c0
-28 -4 -35 -20 -35 -19 0 -20 -7 -20 -253 0 -183 3 -256 12 -265 17 -17 55
-15 62 4 3 9 6 144 6 300 l0 284 110 0 110 0 0 -35 c0 -28 -4 -35 -20 -35 -19
0 -20 -7 -20 -248 0 -268 3 -287 51 -280 l24 3 3 298 2 297 110 0 110 0 0 -35
c0 -28 -4 -35 -20 -35 -19 0 -20 -7 -20 -244 0 -209 2 -247 16 -260 13 -13 45
-16 190 -16 l174 0 0 295 0 295 110 0 110 0 0 -34 c0 -28 -4 -35 -22 -38 l-23
-3 -2 -230 c-2 -171 0 -236 10 -255 12 -25 14 -25 160 -28 l147 -3 0 296 0
295 105 0 105 0 0 -34 c0 -25 -5 -35 -20 -39 -19 -5 -20 -14 -20 -244 0 -200
3 -242 16 -261 18 -25 59 -29 68 -6 3 9 6 144 6 300 l0 284 110 0 110 0 0 -35
c0 -28 -4 -35 -20 -35 -19 0 -20 -7 -20 -253 0 -183 3 -256 12 -265 17 -17 55
-15 62 4 3 9 6 144 6 300 l0 284 110 0 110 0 0 -35 c0 -28 -4 -35 -20 -35 -19
0 -20 -7 -20 -247 0 -137 -5 -264 -10 -284 -5 -19 -23 -48 -40 -64 -24 -23
-41 -29 -87 -33 -53 -3 -62 -1 -102 28 l-43 32 -27 -26 c-52 -50 -131 -52
-193 -6 l-29 22 -6 -21 c-5 -20 -11 -21 -200 -21 -202 0 -230 5 -264 46 -13
16 -14 15 -19 -12 l-5 -29 -230 -3 c-246 -3 -270 1 -306 46 -19 25 -20 25 -34
6 -8 -10 -15 -22 -15 -26 0 -4 -14 -15 -32 -24 -47 -24 -127 -15 -173 20 l-37
28 -27 -26 c-52 -50 -126 -52 -190 -7 -29 21 -30 21 -36 1 -6 -19 -15 -20
-224 -20 l-218 0 -13 -57 c-17 -78 -74 -136 -150 -152 -105 -23 -160 -9 -160
39 0 29 0 30 44 24 39 -6 48 -3 70 19 21 21 26 36 26 77 l0 50 -60 0 c-93 0
-139 32 -182 125 -21 46 -23 64 -23 215 0 132 4 175 18 216 18 53 65 106 107
123 14 5 100 10 193 10 l167 1 0 -35z m1201 -731 c17 -8 37 -30 45 -50 12 -29
12 -39 0 -68 -21 -49 -67 -72 -117 -57 -46 14 -69 44 -69 89 0 45 16 71 53 87
41 18 52 18 88 -1z m239 1 c36 -19 50 -43 50 -87 0 -44 -22 -74 -65 -88 -39
-13 -62 -8 -98 21 -51 39 -40 121 21 153 35 19 56 20 92 1z m777 -44 c23 -4
49 -13 57 -20 21 -17 29 -62 17 -94 l-10 -26 32 19 c18 11 42 20 53 20 29 0
74 -37 74 -60 0 -11 8 -24 19 -29 18 -10 32 -70 33 -141 0 -34 -44 -70 -87
-70 l-33 0 34 -34 c48 -48 45 -75 -14 -136 -27 -28 -55 -50 -63 -50 -8 0 -32
-9 -53 -19 -30 -16 -43 -17 -67 -9 -16 5 -34 18 -39 28 -9 17 -12 16 -39 -11
-33 -33 -49 -35 -94 -15 -18 8 -44 17 -59 20 -15 3 -30 15 -33 26 -3 11 -12
20 -20 20 -20 0 -55 49 -55 77 0 15 14 39 34 59 l34 34 -43 0 c-60 0 -89 25
-87 76 1 21 1 54 2 72 0 18 8 40 20 52 11 11 20 27 20 35 0 24 46 65 72 65 13
0 40 -12 61 -26 l38 -26 -15 31 c-35 66 -9 116 67 130 26 5 51 12 55 15 3 4
16 4 27 1 11 -4 39 -10 62 -14z m-2639 -263 c-2 -19 -11 -24 -48 -28 -77 -9
-130 -63 -130 -133 0 -77 44 -121 135 -134 36 -5 45 -10 45 -26 0 -18 -5 -19
-66 -14 -79 6 -110 25 -141 87 -39 76 -24 169 36 218 33 27 97 52 134 52 34 0
38 -3 35 -22z m112 -43 c0 -62 1 -65 19 -55 36 19 90 12 116 -15 23 -22 25
-31 25 -125 0 -93 -1 -100 -20 -100 -18 0 -20 7 -20 79 0 64 -4 83 -21 105
-24 31 -52 33 -79 6 -17 -17 -20 -33 -20 -105 0 -84 0 -85 -25 -85 l-25 0 0
180 0 180 25 0 c24 0 25 -2 25 -65z m810 -2 c4 -52 7 -61 20 -53 29 19 86 11
114 -15 25 -23 26 -29 26 -125 0 -92 -2 -100 -19 -100 -17 0 -19 9 -22 84 -5
114 -38 152 -97 110 -20 -14 -22 -23 -22 -105 0 -88 0 -89 -25 -89 l-25 0 0
181 0 180 23 -3 c19 -3 23 -10 27 -65z m930 50 c0 -13 -64 -73 -77 -73 -19 0
-16 9 13 47 22 29 64 46 64 26z m-320 -62 c0 -28 2 -30 48 -33 40 -3 47 -6 50
-25 3 -21 0 -23 -47 -23 l-51 0 0 -63 c0 -78 14 -102 58 -95 28 4 32 2 32 -19
0 -21 -4 -23 -47 -23 -78 0 -83 10 -83 172 0 131 1 138 20 138 15 0 20 -7 20
-29z m-1132 -126 c2 -49 8 -95 14 -102 13 -17 74 -17 85 0 4 6 10 53 13 102 5
82 7 90 25 90 19 0 20 -7 20 -97 0 -88 -2 -99 -24 -122 -50 -53 -141 -42 -167
20 -14 34 -20 185 -7 198 4 4 14 5 23 4 12 -3 16 -21 18 -93z m974 56 c33 -37
38 -81 9 -81 -11 0 -23 12 -31 30 -17 41 -77 60 -114 36 -14 -9 -28 -27 -32
-41 -6 -25 -37 -35 -49 -15 -10 16 23 74 53 93 20 13 42 17 81 14 46 -3 59 -9
83 -36z m465 28 c33 -12 73 -47 73 -64 0 -6 -37 -31 -81 -54 -65 -35 -83 -41
-90 -30 -14 22 -12 23 46 54 30 17 53 35 52 40 -5 15 -70 18 -90 3 -45 -34
-34 -131 16 -143 49 -13 81 -2 97 32 10 22 22 33 38 33 45 0 11 -83 -43 -106
-97 -40 -185 16 -185 118 0 50 18 81 64 109 35 21 62 24 103 8z m198 1 c4 -7
12 -7 25 0 30 16 50 12 50 -10 0 -11 -5 -20 -12 -20 -6 0 -22 -10 -35 -22 -20
-19 -23 -31 -23 -105 0 -82 0 -83 -25 -83 l-25 0 0 118 c0 65 3 122 7 125 10
10 31 8 38 -3z m-1225 -19 c0 -14 -10 -20 -40 -25 -107 -17 -108 -139 -2 -153
32 -4 42 -10 42 -24 0 -15 -8 -19 -40 -19 -52 0 -96 23 -115 60 -44 86 14 180
112 180 35 0 43 -3 43 -19z m396 -126 c17 -70 136 -72 146 -2 2 14 11 23 26
25 18 3 22 -1 22 -23 0 -34 -58 -95 -91 -96 -82 -4 -118 13 -144 67 -18 38
-13 54 15 54 13 0 22 -9 26 -25z"/>
<path d="M2026 3215 c-23 -23 -28 -84 -24 -282 3 -200 7 -213 64 -213 l34 0 0
233 c0 194 -3 236 -16 255 -18 26 -37 28 -58 7z"/>
<path d="M4447 2486 c-10 -11 -25 -14 -45 -10 -32 7 -72 -22 -72 -51 0 -22 26
-81 50 -115 19 -26 23 -28 51 -18 29 10 31 13 27 59 -2 33 1 49 9 49 7 0 13
-20 15 -52 3 -47 6 -52 30 -59 26 -7 29 -4 58 56 35 73 36 82 14 114 -14 19
-23 22 -54 18 -26 -3 -43 0 -53 10 -12 13 -16 13 -30 -1z"/>
<path d="M4612 2328 c-29 -28 -52 -57 -52 -64 0 -32 54 -41 116 -17 8 3 14 0
14 -6 0 -6 -21 -17 -47 -24 -45 -13 -48 -16 -44 -43 1 -16 8 -32 14 -36 18
-11 114 -21 140 -14 35 8 51 51 33 86 -7 16 -11 39 -9 53 4 18 0 26 -16 30
-14 3 -21 13 -21 30 0 28 -28 57 -56 57 -11 0 -43 -23 -72 -52z"/>
<path d="M4212 2354 c-14 -9 -22 -26 -22 -43 0 -20 -6 -30 -20 -34 -21 -5 -27
-31 -10 -42 5 -3 3 -19 -7 -40 -15 -31 -15 -36 2 -61 17 -26 20 -27 86 -21 84
7 109 19 107 52 -2 20 -10 27 -38 35 -19 5 -41 10 -47 10 -7 0 -13 5 -13 10 0
12 25 13 67 1 28 -8 34 -6 49 17 l17 26 -57 53 c-61 56 -78 62 -114 37z"/>
<path d="M4427 2212 c-10 -10 -17 -28 -17 -40 0 -27 33 -62 58 -62 31 0 62 29
62 59 0 54 -68 82 -103 43z"/>
<path d="M4304 2090 c-102 -59 -120 -105 -57 -145 18 -11 35 -28 39 -38 4 -12
14 -17 28 -15 13 1 29 -2 37 -9 29 -24 66 -26 88 -4 18 18 21 33 21 95 0 70
-1 74 -25 78 -20 4 -29 -2 -54 -39 -15 -25 -31 -41 -34 -36 -4 5 5 26 18 46
30 43 30 43 7 72 l-19 24 -49 -29z"/>
<path d="M4569 2097 c-16 -21 -15 -24 12 -64 16 -23 25 -44 19 -48 -5 -3 -21
13 -36 35 -22 32 -31 39 -48 34 -33 -10 -34 -14 -26 -88 6 -49 13 -74 26 -83
26 -19 72 -16 85 5 8 12 20 17 35 14 18 -3 26 2 34 22 5 14 16 26 23 26 20 0
47 33 47 58 0 27 -32 57 -92 88 -57 29 -59 29 -79 1z"/>
</g>
</svg>
